<svg xmlns="http://www.w3.org/2000/svg" xmlns:xlink="http://www.w3.org/1999/xlink" width="500" zoomAndPan="magnify" viewBox="0 0 375 374.999991" height="500" preserveAspectRatio="xMidYMid meet" version="1.0"><defs><clipPath id="974c10812d"><path d="M 116.183594 136 L 258.683594 136 L 258.683594 262.5 L 116.183594 262.5 Z M 116.183594 136 " clip-rule="nonzero"/></clipPath><clipPath id="76b8546b90"><path d="M 178 112.5 L 197 112.5 L 197 190 L 178 190 Z M 178 112.5 " clip-rule="nonzero"/></clipPath></defs><rect x="-37.5" width="450" fill="#ffffff" y="-37.499999" height="449.999989" fill-opacity="1"/><rect x="-37.5" width="450" fill="#ffffff" y="-37.499999" height="449.999989" fill-opacity="1"/><g clip-path="url(#974c10812d)"><path fill="#00bf63" d="M 187.503906 262.425781 C 148.261719 262.425781 116.332031 230.5 116.332031 191.257812 C 116.332031 171.644531 124.546875 152.710938 138.867188 139.300781 C 142.511719 135.90625 148.199219 136.097656 151.601562 139.71875 C 154.996094 143.351562 154.8125 149.050781 151.179688 152.449219 C 140.320312 162.613281 134.339844 176.394531 134.339844 191.261719 C 134.339844 220.574219 158.1875 244.421875 187.503906 244.421875 C 216.816406 244.421875 240.664062 220.574219 240.664062 191.261719 C 240.664062 176.730469 234.90625 163.152344 224.449219 153.042969 C 220.878906 149.585938 220.785156 143.882812 224.238281 140.308594 C 227.695312 136.75 233.394531 136.632812 236.972656 140.097656 C 250.960938 153.636719 258.671875 171.804688 258.671875 191.261719 C 258.671875 230.5 226.746094 262.425781 187.503906 262.425781 Z M 187.503906 262.425781 " fill-opacity="1" fill-rule="nonzero"/></g><g clip-path="url(#76b8546b90)"><path fill="#00bf63" d="M 187.503906 189.515625 C 182.523438 189.515625 178.496094 185.484375 178.496094 180.511719 L 178.496094 121.503906 C 178.496094 116.53125 182.523438 112.5 187.503906 112.5 C 192.480469 112.5 196.507812 116.53125 196.507812 121.503906 L 196.507812 180.511719 C 196.503906 185.484375 192.480469 189.515625 187.503906 189.515625 Z M 187.503906 189.515625 " fill-opacity="1" fill-rule="nonzero"/></g></svg>